<svg width="40" height="40" viewBox="0 0 40 40" fill="none" xmlns="http://www.w3.org/2000/svg">
<circle cx="20" cy="13.3335" r="4.5" stroke="#222222" stroke-linecap="round"/>
<path d="M22.6582 10.6668C23.0208 10.0388 23.5615 9.53238 24.2119 9.21163C24.8623 8.89088 25.5933 8.77021 26.3123 8.86486C27.0312 8.95952 27.706 9.26526 28.2513 9.74342C28.7965 10.2216 29.1877 10.8507 29.3754 11.5512C29.5631 12.2516 29.5388 12.9921 29.3057 13.6788C29.0726 14.3655 28.6411 14.9677 28.0658 15.4091C27.4904 15.8506 26.7971 16.1115 26.0735 16.159C25.3498 16.2064 24.6284 16.0382 24.0003 15.6756" stroke="#222222"/>
<path d="M17.3418 10.6668C16.9792 10.0388 16.4385 9.53238 15.7881 9.21163C15.1377 8.89088 14.4067 8.77021 13.6877 8.86486C12.9688 8.95952 12.294 9.26526 11.7487 9.74342C11.2035 10.2216 10.8123 10.8507 10.6246 11.5512C10.4369 12.2516 10.4612 12.9921 10.6943 13.6788C10.9274 14.3655 11.3589 14.9677 11.9342 15.4091C12.5096 15.8506 13.2029 16.1115 13.9265 16.159C14.6502 16.2064 15.3716 16.0382 15.9997 15.6756" stroke="#222222"/>
<path d="M19.9997 20.8335C27.3774 20.8335 28.8172 27.3112 29.0982 29.8395C29.1592 30.3884 28.7186 30.8335 28.1663 30.8335H11.833C11.2807 30.8335 10.8401 30.3884 10.9011 29.8395C11.1821 27.3112 12.622 20.8335 19.9997 20.8335Z" stroke="#222222" stroke-linecap="round"/>
<path d="M25.833 19.167V18.667H25.833L25.833 19.167ZM32.3232 26.4121L32.8133 26.3129L32.8133 26.3129L32.3232 26.4121ZM28.6338 27.5L28.1535 27.639L28.258 28H28.6338V27.5ZM21.8135 20.9775L21.4443 20.6404L20.8239 21.3198L21.7314 21.4708L21.8135 20.9775ZM25.833 19.167V19.667C27.8682 19.667 29.2387 20.7782 30.1807 22.2167C31.131 23.6678 31.6096 25.4068 31.8332 26.5113L32.3232 26.4121L32.8133 26.3129C32.5798 25.1593 32.0696 23.2758 31.0173 21.6688C29.9566 20.0493 28.3106 18.667 25.833 18.667V19.167ZM32.3232 26.4121L31.8332 26.5113C31.882 26.7523 31.7006 27 31.3945 27V27.5V28C32.2717 28 32.9993 27.2316 32.8133 26.3129L32.3232 26.4121ZM31.3945 27.5V27H28.6338V27.5V28H31.3945V27.5ZM28.6338 27.5L29.1141 27.361C28.3453 24.7041 26.4606 21.2439 21.8955 20.4843L21.8135 20.9775L21.7314 21.4708C25.7471 22.1389 27.4337 25.1514 28.1535 27.639L28.6338 27.5ZM21.8135 20.9775L22.1827 21.3147C23.0686 20.3445 24.2421 19.667 25.833 19.667L25.833 19.167L25.833 18.667C23.9135 18.667 22.485 19.5007 21.4443 20.6404L21.8135 20.9775Z" fill="#222222"/>
<path d="M14.167 19.167V18.667H14.167L14.167 19.167ZM18.1855 20.9775L18.2677 21.4707L19.1752 21.3196L18.5547 20.6403L18.1855 20.9775ZM11.3662 27.5V28H11.742L11.8465 27.639L11.3662 27.5ZM7.67676 26.4121L7.1867 26.3129L7.1867 26.3129L7.67676 26.4121ZM14.167 19.167V19.667C15.7575 19.667 16.9303 20.3447 17.8164 21.3147L18.1855 20.9775L18.5547 20.6403C17.5142 19.5011 16.0864 18.667 14.167 18.667V19.167ZM18.1855 20.9775L18.1034 20.4843C13.5392 21.2443 11.6546 24.7043 10.8859 27.361L11.3662 27.5L11.8465 27.639C12.5662 25.1516 14.2528 22.1393 18.2677 21.4707L18.1855 20.9775ZM11.3662 27.5V27H8.60547V27.5V28H11.3662V27.5ZM8.60547 27.5V27C8.29943 27 8.11804 26.7523 8.16682 26.5113L7.67676 26.4121L7.1867 26.3129C7.00075 27.2316 7.72828 28 8.60547 28V27.5ZM7.67676 26.4121L8.16682 26.5113C8.39039 25.4068 8.86901 23.6678 9.81932 22.2167C10.7614 20.7783 12.1319 19.667 14.167 19.667L14.167 19.167L14.167 18.667C11.6894 18.667 10.0434 20.0493 8.98275 21.6689C7.93037 23.2758 7.42021 25.1593 7.1867 26.3129L7.67676 26.4121Z" fill="#222222"/>
</svg>
