<svg width="30" height="30" viewBox="0 0 30 30" fill="none" xmlns="http://www.w3.org/2000/svg">
<path d="M21.875 4.375H23.075C24.8663 4.375 25.762 4.375 26.3185 4.9315C26.875 5.48799 26.875 6.38366 26.875 8.175V9.375" stroke="#222222" stroke-linecap="round"/>
<path d="M21.875 25.625H23.075C24.8663 25.625 25.762 25.625 26.3185 25.0685C26.875 24.512 26.875 23.6163 26.875 21.825V20.625" stroke="#222222" stroke-linecap="round"/>
<path d="M8.125 4.375H6.925C5.13366 4.375 4.23799 4.375 3.6815 4.9315C3.125 5.48799 3.125 6.38366 3.125 8.175V9.375" stroke="#222222" stroke-linecap="round"/>
<path d="M8.125 25.625H6.925C5.13366 25.625 4.23799 25.625 3.6815 25.0685C3.125 24.512 3.125 23.6163 3.125 21.825V20.625" stroke="#222222" stroke-linecap="round"/>
<path d="M8.91581 19.6597C9.52019 18.7874 10.3971 18.0526 11.4668 17.5379C12.5365 17.0232 13.7554 16.75 15 16.75C16.2446 16.75 17.4635 17.0232 18.5332 17.5379C19.6029 18.0526 20.4798 18.7874 21.0842 19.6597" stroke="#222222" stroke-linecap="round"/>
<circle cx="15" cy="11.25" r="3.25" stroke="#222222" stroke-linecap="round"/>
</svg>
