<svg width="40" height="40" viewBox="0 0 40 40" fill="none" xmlns="http://www.w3.org/2000/svg">
<path d="M14.7172 20.4612L16.4356 21.034C17.3667 21.3444 17.8322 21.4996 18.1661 21.8334C18.4999 22.1673 18.6551 22.6328 18.9655 23.5639L19.5383 25.2823C21.1071 29.9887 21.8915 32.3419 23.333 32.3419C24.7745 32.3419 25.5589 29.9887 27.1277 25.2823L32.0681 10.4612C32.62 8.80545 32.896 7.97755 32.459 7.54054C32.022 7.10352 31.1941 7.37948 29.5383 7.93141L14.7172 12.8718C10.0108 14.4406 7.65756 15.225 7.65756 16.6665C7.65756 18.108 10.0108 18.8924 14.7172 20.4612Z" fill="#7E869E" fill-opacity="0.25" stroke="#222222"/>
</svg>
